<?xml version="1.0" encoding="iso-8859-1"?>
<!-- Generator: Adobe Illustrator 18.0.0, SVG Export Plug-In . SVG Version: 6.00 Build 0)  -->
<!DOCTYPE svg PUBLIC "-//W3C//DTD SVG 1.1//EN" "http://www.w3.org/Graphics/SVG/1.1/DTD/svg11.dtd">
<svg version="1.1" id="Capa_1" xmlns="http://www.w3.org/2000/svg" xmlns:xlink="http://www.w3.org/1999/xlink" x="0px" y="0px"
	 viewBox="0 0 471.654 471.654" style="enable-background:new 0 0 471.654 471.654;" xml:space="preserve">
<g>
	<path d="M370.756,258.645l-22.294-6.646c0.195,3.559-0.586,7.109-2.753,9.955l-3.676,4.84l-44.713,58.875
		c-2.822,3.73-7.295,5.959-12.519,5.959c-0.016,0-0.024,0-0.039,0c-4.912-0.181-9.431-2.745-12.105-6.874l-6.499-10.041
		l-13.943,12.325h-33.155L205.322,314.9l-6.38,9.862c-2.667,4.112-7.188,6.684-12.653,6.88c-4.691,0-9.18-2.236-12.011-5.966
		l-44.697-58.875l-3.676-4.839c-2.165-2.854-2.948-6.404-2.752-9.955l-22.255,6.638c-13.215,3.941-22.278,16.093-22.278,29.888
		v25.914c0,86.822,70.385,157.208,157.208,157.208c86.822,0,157.207-70.385,157.207-157.208v-25.914
		C393.034,274.738,383.971,262.586,370.756,258.645z M236.139,461.84c-4.831,0-9.141-2.674-11.556-6.771
		c-0.298-0.501-0.673-0.938-0.908-1.486l-18.063-42.649l11.135-74.497h38.786l11.135,74.497l-18.063,42.649
		c-0.227,0.532-0.602,0.962-0.892,1.454C245.305,459.159,240.988,461.84,236.139,461.84z"/>
	<path d="M155.143,234.38l-20.846,12.386c-1.73,1.025-2.94,2.745-3.325,4.724c-0.383,1.978,0.087,4.018,1.307,5.621l48.38,63.723
		c1.337,1.768,3.432,2.8,5.629,2.8c0.087,0,0.181-0.007,0.266-0.007c2.299-0.086,4.418-1.29,5.669-3.222l25.665-39.663
		C194.64,275.199,172.926,259.044,155.143,234.38z"/>
	<path d="M316.487,234.397c-17.781,24.663-39.497,40.818-62.76,46.355l25.656,39.654c1.252,1.931,3.363,3.135,5.677,3.222
		c0.087,0,0.179,0.007,0.266,0.007c2.197,0,4.277-1.032,5.615-2.8l48.389-63.723c1.22-1.603,1.689-3.643,1.313-5.621
		c-0.391-1.979-1.611-3.699-3.331-4.724L316.487,234.397z"/>
	<path d="M150.92,195.611c16.461,35.33,46.771,71.504,84.907,71.504c38.113,0,68.399-36.12,84.875-71.426
		c13.066-2.558,25.438-14.709,31.224-31.302c7.773-22.357,1.354-44.338-14.528-50.93c3.518-25.515,4.598-74.115-55.481-91.412
		c0,0-11.158-17.672-36.98-21.386c-6.732-0.97-14.466-0.938-23.279,0.57c-13.105,2.244-28.495,7.725-46.55,18.556
		c-43.618,26.173-46.676,70.699-40.71,93.422c0.016,0.046,0.055,0.079,0.063,0.133c-7.929,3.23-13.918,10.604-16.522,20.434
		c-2.463,9.329-1.814,20.206,1.821,30.614C125.476,180.824,137.658,192.906,150.92,195.611z M133.429,137.863
		c0.781-2.98,2.799-8.219,7.452-9.838c0.493-0.171,4.133-1.154,5.528-1.47c35.595-8.057,119.774-23.358,130.12-66.178
		c0,0,9.622,40.445,46.363,63.565c4.215,2.652,7.389,3.911,7.891,4.082c7.101,2.471,11.314,15.858,6.022,31.099
		c-4.771,13.668-14.46,21.043-21.34,21.043c-0.008,0-0.008,0-0.008,0c-3.285-0.04-6.195,1.845-7.492,4.808
		c-13.934,31.967-40.202,66.125-72.137,66.125c-31.936,0-58.203-34.158-72.137-66.125c-1.274-2.924-4.497-4.808-7.687-4.808
		c-6.692,0-16.365-7.375-21.12-21.043C132.325,151.79,131.793,144.04,133.429,137.863z"/>
</g>
<g>
</g>
<g>
</g>
<g>
</g>
<g>
</g>
<g>
</g>
<g>
</g>
<g>
</g>
<g>
</g>
<g>
</g>
<g>
</g>
<g>
</g>
<g>
</g>
<g>
</g>
<g>
</g>
<g>
</g>
</svg>
